Coordinates
version=1
nRows=14
nColumns=33
inDegrees=yes

Units are S.I. units (second, meters, Newtons, ...)
Angles are in degrees.

endheader
time	ground_thorax_rot_x	ground_thorax_rot_y	ground_thorax_rot_z	ground_thorax_tx	ground_thorax_ty	ground_thorax_tz	clav_prot_r	clav_elev_r	scapula_abduction_r	scapula_elevation_r	scapula_upward_rot_r	scapula_winging_r	shoulder_elv_r	plane_of_elev_r	axial_rot_r	elbow_flexion_r	pro_sup_r	wrist_flex_r	wrist_dev_r	clav_prot_l	clav_elev_l	scapula_abduction_l	scapula_elevation_l	scapula_upward_rot_l	scapula_winging_l	shoulder_elv_l	plane_of_elev_l	axial_rot_l	elbow_flexion_l	pro_sup_l	wrist_flex_l	wrist_dev_l
      2.09000000	     -0.99506305	      1.95638798	     -0.43574260	     -0.15281846	      0.98753412	     -0.00092813	     -7.17183042	     -6.02082007	    -10.18763940	      2.93737146	     -3.30264464	      2.19607090	     41.66432214	    -27.29007168	     14.50497204	     78.16585507	     -1.58989652	     -7.51024610	      0.56241156	     -3.78806472	     -4.50657049	      4.26895742	     -4.55783630	     -6.67129729	     -1.81622593	     46.81877794	    -24.92377898	    -11.16010439	     80.18481136	     14.34108747	     10.61538918	     11.15920567
      2.10000000	     -1.03059026	      2.01726324	      0.04797243	     -0.15355915	      0.98666878	     -0.00101465	     -6.69289525	     -6.09243811	     -9.77553580	      3.36601995	     -4.47953999	      2.34112998	     41.84746896	    -25.14828269	     12.60380803	     76.53157798	     -0.87907055	    -10.50786078	      2.61734619	     -3.40529931	     -4.45730933	      3.69082493	     -4.73130581	     -6.96479866	     -1.70812779	     46.89009783	    -23.20750200	    -11.00420386	     78.51921071	     13.53920439	     12.59127955	     13.60291482
      2.11000000	     -0.99923387	      2.02407326	     -0.06663310	     -0.15365147	      0.98710408	     -0.00112613	     -6.52852304	     -6.89313670	     -9.35632016	      2.64904601	     -4.54880721	      2.47767189	     41.81486881	    -23.82698731	     11.58651523	     74.48573994	     -0.62917197	    -11.24050639	      2.97765703	     -3.19588466	     -5.18097240	      3.14473455	     -4.02650985	     -6.87644011	     -1.72164874	     46.96969782	    -22.10641486	    -10.78539264	     76.55544023	     13.55792348	     12.92042868	     14.20823852
      2.12000000	     -0.99154808	      2.06814215	      0.43525660	     -0.15438657	      0.98610569	     -0.00118231	     -6.05359488	     -6.89239606	     -8.89032417	      3.08503617	     -5.57239055	      2.55302309	     42.01291924	    -21.58153448	      9.79965453	     72.38593083	      0.31080926	    -13.88004248	      5.36082786	     -2.79677288	     -5.10750001	      2.52628263	     -4.20100553	     -7.11678264	     -1.58139241	     46.86214523	    -20.33610049	    -10.55825868	     74.39732504	     12.80059509	     14.88103438	     16.17988319
      2.13000000	     -0.95682363	      2.07354358	      0.59923507	     -0.15484970	      0.98599453	     -0.00124462	     -5.67567709	     -7.41696100	     -8.39793801	      2.91817108	     -6.33504254	      2.71136295	     42.47000645	    -19.71748107	      8.36953005	     70.09704826	      1.59257638	    -15.49288179	      7.42358309	     -2.46475447	     -5.55490884	      1.89669212	     -3.84586544	     -7.24919145	     -1.54316871	     46.90116471	    -18.93688042	    -10.22630010	     72.09950113	     12.46460175	     16.21584977	     17.43204143
      2.14000000	     -0.93115950	      2.05162233	      0.55839720	     -0.15511062	      0.98638985	     -0.00125603	     -5.43259962	     -8.19175169	     -7.81327971	      2.16108484	     -6.24659875	      2.79339986	     42.49987128	    -18.54317839	      7.77304544	     67.55831257	      1.81756557	    -16.03775354	      7.71312530	     -2.19265634	     -6.25672213	      1.24639448	     -3.14571542	     -7.11421921	     -1.52974127	     46.94792044	    -17.89708651	    -10.08945514	     69.61503886	     12.56606715	     16.47213744	     17.88249639
      2.15000000	     -0.87897579	      2.06697036	      0.93881950	     -0.15565692	      0.98548485	     -0.00134192	     -5.01529256	     -8.19774361	     -7.29415241	      2.42917437	     -6.87924785	      2.77721627	     42.74341814	    -16.41155568	      6.68679589	     64.76979544	      2.22591406	    -17.49343900	      9.43458554	     -1.86280138	     -6.20868807	      0.67302221	     -3.20504045	     -7.13412434	     -1.36432402	     46.49485071	    -16.11257439	     -9.73958995	     66.79812290	     11.88656027	     18.10386731	     18.88527847
      2.16000000	     -0.85072166	      2.05654643	      0.88294177	     -0.15594256	      0.98591242	     -0.00128956	     -4.69735087	     -8.96119044	     -6.60401964	      1.69342468	     -6.81259169	      2.84538383	     42.92474366	    -15.30569960	      6.29142594	     62.02623982	      2.43741225	    -18.01957850	      9.72944140	     -1.54726529	     -6.92588445	     -0.04540166	     -2.49115889	     -6.99519210	     -1.34486966	     46.54654630	    -15.10718855	     -9.58154213	     64.06987652	     11.96417388	     18.43663893	     19.33023025
      2.17000000	     -0.79427493	      2.03588565	      1.26687349	     -0.15645370	      0.98515513	     -0.00137895	     -4.26699467	     -8.99418958	     -6.07492106	      1.96334743	     -7.50939143	      2.82957906	     43.37949703	    -13.15843996	      5.55430948	     58.91885124	      2.58716271	    -19.03440548	     11.23482348	     -1.22730036	     -6.89175631	     -0.61536713	     -2.52171804	     -6.97721654	     -1.17273535	     45.98954704	    -13.40323438	     -9.06247362	     60.92086603	     11.17407376	     20.14629106	     19.92076317
      2.18000000	     -0.78406734	      2.03685868	      1.20695537	     -0.15667466	      0.98566553	     -0.00130139	     -3.94223020	     -9.73399488	     -5.38491470	      1.24097443	     -7.42107729	      2.89375167	     43.56929853	    -12.08734204	      5.26576683	     55.93452142	      2.76514512	    -19.49962426	     11.49503753	     -0.90534966	     -7.58603634	     -1.33621225	     -1.82328212	     -6.81836525	     -1.15353543	     46.02615514	    -12.44939775	     -8.88375766	     58.00415624	     11.25580254	     20.47562402	     20.27734873
      2.19000000	     -0.77045361	      2.02205165	      1.17684394	     -0.15687896	      0.98592833	     -0.00122108	     -3.63171223	    -10.25727402	     -4.76532374	      0.73712769	     -7.36854875	      2.91856677	     43.69505975	    -10.75090213	      4.94046161	     52.77567163	      2.80780331	    -19.96656668	     11.93133017	     -0.60883884	     -8.06279594	     -1.98354285	     -1.31928373	     -6.64254505	     -1.09496268	     45.84456018	    -11.25517100	     -8.49930869	     54.86253807	     11.06931043	     21.03989370	     20.53979341
      2.20000000	     -0.71933652	      1.98441557	      1.55052592	     -0.15700739	      0.98543155	     -0.00112022	     -3.37540975	    -10.22178061	     -4.45578753	      0.94836223	     -7.78126328	      2.87924173	     43.84358960	     -8.75300564	      4.44083064	     49.30051700	      2.57694060	    -20.30976046	     12.96283059	     -0.37385420	     -8.01779817	     -2.42015075	     -1.33283065	     -6.56060021	     -0.94570418	     45.09960622	     -9.64501258	     -7.55205917	     51.37638308	     10.22432167	     22.38375854	     20.44985531
      2.21000000	     -0.65558612	      2.00293794	      1.83966017	     -0.15746899	      0.98513048	     -0.00103517	     -2.99836506	    -10.31106192	     -3.94515919	      1.07990351	     -8.27500531	      2.84157760	     44.37240022	     -6.93256772	      4.47627566	     45.94146826	      2.51119956	    -20.34602315	     13.86606081	      0.07281437	     -8.14654748	     -3.24737207	     -1.19607927	     -6.49241201	     -0.72883100	     44.73007975	     -8.38773399	     -7.12788417	     48.09787309	      9.86320093	     23.64150376	     20.17200055
      2.22000000	     -0.66289529	      1.99923922	      1.75695421	     -0.15753479	      0.98585117	     -0.00087566	     -2.72062212	    -10.95798924	     -3.33905707	      0.40096114	     -8.08341343	      2.89562769	     44.49357400	     -6.01852739	      4.42966421	     42.87394970	      2.63866092	    -20.64842926	     14.01521335	      0.39140493	     -8.73333832	     -3.93084219	     -0.59815271	     -6.32812830	     -0.70011307	     44.73906033	     -7.56961735	     -6.85218766	     45.21367330	     10.00366635	     23.86318383	     20.36196927
